<svg id="Layer_1" data-name="Layer 1" xmlns="http://www.w3.org/2000/svg" viewBox="0 0 136.31 81.99"><defs><style>.cls-1{fill:#fff;}</style></defs><g id="Layer_2" data-name="Layer 2"><g id="OBJECTS"><path class="cls-1" d="M8.18,80.42h0A14.79,14.79,0,0,1,1.56,60.58L27.77,8.18A14.78,14.78,0,0,1,47.6,1.56h0a14.79,14.79,0,0,1,6.62,19.83h0L28,73.81A14.78,14.78,0,0,1,8.18,80.42Z" transform="translate(0 0)"/><path class="cls-1" d="M55,80.42h0a14.79,14.79,0,0,1-6.62-19.84L74.59,8.18A14.78,14.78,0,0,1,94.42,1.56h0A14.79,14.79,0,0,1,101,21.4L74.83,73.81A14.78,14.78,0,0,1,55,80.42Z" transform="translate(0 0)"/><circle class="cls-1" cx="116.6" cy="60.7" r="19.71"/></g></g></svg>